<svg width="218" height="420" viewBox="0 0 218 420" fill="none" xmlns="http://www.w3.org/2000/svg">
<g style="mix-blend-mode:plus-lighter" opacity="0.1">
<path d="M145.217 155.868L150.112 178.257L177.414 188.074L189.414 213.196V173.337L178.507 150.401L117.914 117.103L115.181 104.529L59.5063 195.727L69.3202 224.652L122.286 148.215L145.217 155.868Z" fill="#5B748D"/>
<path d="M297.651 195.7L275.671 214.762H258.848L275.434 255.572L269.374 269.262L255.26 272.637L226.103 255.596V248.204L245.161 232.945L246.064 220.158L238.721 229.023L216.242 230.663L193.763 229.023L186.42 220.158L187.323 232.945L206.381 248.204V255.596L177.224 272.637L163.11 269.262L157.05 255.572L173.636 214.762H156.813L134.833 195.7L118.959 189.711L75.8311 261.229L216.218 419.024L356.605 261.229L313.477 189.711L297.604 195.7H297.651ZM216.266 271.615L239.838 290.178L216.266 320.197L192.694 290.178L216.266 271.615ZM216.266 380.805L107.007 259.042L131.031 222.463L146.096 228.476L133.763 259.042L146.096 281.978L171.973 291.794L216.289 352.402L260.606 291.794L286.483 281.978L298.816 259.042L286.483 228.476L301.548 222.463L325.572 259.042L216.313 380.805H216.266Z" fill="#5B748D"/>
<path d="M111.237 23.554H321.295V0C321.295 0 321.223 0 321.2 0H111.332C111.332 0 111.261 0 111.237 0V23.554Z" fill="#5B748D"/>
<path d="M386.76 37.7949C386.76 37.7949 386.688 37.7949 386.641 37.7949H45.8909C45.8909 37.7949 45.8196 37.7949 45.7721 37.7949C20.5366 37.7949 0.0297852 58.2829 0.0297852 83.5957C0.0297852 108.909 20.5128 129.349 45.7721 129.349C71.0313 129.349 90.849 109.55 91.5143 84.9267H67.966C67.2531 96.573 57.6057 105.795 45.7721 105.795C33.9385 105.795 23.5781 95.8599 23.5781 83.5957C23.5781 71.3314 33.5108 61.3489 45.7721 61.3489H204.456H386.736C398.974 61.3489 408.93 71.3314 408.93 83.5957C408.93 95.8599 398.997 105.795 386.736 105.795C374.475 105.795 365.255 96.5492 364.542 84.9267H340.994C341.659 109.574 361.857 129.349 386.736 129.349C411.615 129.349 432.478 108.861 432.478 83.5957C432.478 58.3304 411.995 37.7949 386.736 37.7949H386.76Z" fill="#5B748D"/>
<path d="M290.784 76.9141V114.966L267.236 125.567V100.468H228.052V137.213L216.266 142.537L204.456 137.213V100.468H165.249V125.567L141.7 114.966V76.9141H290.784Z" fill="#5B748D"/>
</g>
</svg>
