<svg width="58" height="43" viewBox="0 0 58 43" fill="none" xmlns="http://www.w3.org/2000/svg">
<path d="M0 43V26.8559C0 19.2046 1.80852 13.1601 5.42556 8.72242C9.09354 4.2847 14.4172 1.37722 21.3966 0V7.9573C16.2003 9.58956 12.7106 12.395 10.9275 16.3737C10.0105 18.465 9.62846 20.6329 9.78129 22.8772H21.7787V43H0ZM57.6179 7.9573C52.4725 9.53855 49.0083 12.395 47.2253 16.5267C46.2064 18.72 45.7989 20.8369 46.0026 22.8772H58V43H36.2213V26.8559C36.2213 19.1026 38.0808 13.0326 41.7997 8.64591C45.5696 4.25919 50.8423 1.37722 57.6179 0V7.9573Z" fill="#E1251B"/>
</svg>
