<svg width="1156" height="344" viewBox="0 0 1156 344" fill="none" xmlns="http://www.w3.org/2000/svg">
<g opacity="0.2">
<mask id="mask0_5_369" style="mask-type:alpha" maskUnits="userSpaceOnUse" x="0" y="0" width="1156" height="344">
<path d="M0 30C0 13.4315 13.4315 0 30 0H1126C1142.57 0 1156 13.4315 1156 30V314C1156 330.569 1142.57 344 1126 344H30C13.4315 344 0 330.569 0 314V30Z" fill="#F0F6F9"/>
</mask>
<g mask="url(#mask0_5_369)">
<g style="mix-blend-mode:multiply" opacity="0.2">
<path d="M-0.000151801 333.203L-0.000124905 25.5466C16.7656 19.7058 34.7797 16.5363 53.5312 16.5363C143.46 16.5363 216.363 89.4402 216.363 179.375C216.363 269.31 143.459 342.207 53.5312 342.207C34.7797 342.207 16.7656 339.038 -0.000151801 333.203Z" fill="#009ADE"/>
<path d="M719.601 -22.6205C719.601 -44.7355 728.004 -64.8776 741.787 -80.0457L868.248 -80.0457C882.032 -64.8776 890.435 -44.7354 890.435 -22.6204C890.435 24.5526 852.194 62.793 805.021 62.793C757.848 62.793 719.601 24.5526 719.601 -22.6205Z" fill="#009ADE"/>
<path d="M509.583 -22.6205C509.583 -44.7355 517.985 -64.8776 531.769 -80.0457L658.23 -80.0457C672.014 -64.8776 680.416 -44.7354 680.416 -22.6204C680.416 24.5526 642.176 62.793 595.003 62.793C547.83 62.793 509.583 24.5526 509.583 -22.6205Z" fill="#009ADE"/>
<path d="M719.601 381.358C719.601 334.185 757.841 295.944 805.021 295.944C852.2 295.944 890.434 334.185 890.434 381.358C890.434 396.907 886.275 411.493 879.011 424.055L731.024 424.055C723.76 411.493 719.601 396.907 719.601 381.358Z" fill="#009ADE"/>
<path d="M509.583 381.358C509.583 334.185 547.83 295.944 595.003 295.944C642.176 295.944 680.416 334.185 680.416 381.358C680.416 396.907 676.257 411.493 668.993 424.055L521.006 424.055C513.742 411.493 509.583 396.907 509.583 381.358Z" fill="#009ADE"/>
<path d="M704.569 93.9583C657.396 93.9583 619.155 132.199 619.155 179.372C619.155 226.544 657.396 264.785 704.569 264.785C751.741 264.785 789.982 226.544 789.982 179.372C789.982 132.199 751.741 93.9583 704.569 93.9583Z" fill="#009ADE"/>
<path d="M914.587 93.9583C867.414 93.9583 829.173 132.199 829.173 179.372C829.173 226.544 867.414 264.785 914.587 264.785C961.759 264.785 1000 226.544 1000 179.372C1000 132.199 961.759 93.9583 914.587 93.9583Z" fill="#009ADE"/>
</g>
</g>
</g>
</svg>
