<svg width="326" height="323" viewBox="0 0 326 323" fill="none" xmlns="http://www.w3.org/2000/svg">
<path d="M88.9446 53.2925L94.0236 76.2333L122.352 86.2911L134.803 112.033V71.1921L123.486 47.6912L60.6159 13.5723L57.7806 0.689453L0.0136719 94.1329L10.1962 123.771L65.1525 45.4507L88.9446 53.2925Z" fill="#0A477F"/>
<path d="M267.546 0.689453L264.711 13.5723L201.84 47.6912L190.499 71.1921V112.033L202.975 86.2911L231.279 76.2333L236.382 53.2925L260.174 45.4507L315.106 123.771L325.313 94.1329L267.546 0.689453Z" fill="#0A477F"/>
<path d="M247.108 94.1058L224.302 113.637H206.846L224.055 155.452L217.768 169.479L203.123 172.937L172.871 155.476V147.902L192.645 132.267L193.581 119.165L185.963 128.249L162.639 129.929L139.316 128.249L131.697 119.165L132.634 132.267L152.407 147.902V155.476L122.155 172.937L107.51 169.479L101.223 155.452L118.433 113.637H100.977L78.1708 94.1058L61.7012 87.9688L16.9521 161.248L162.615 322.929L308.277 161.248L263.528 87.9688L247.058 94.1058H247.108ZM162.664 171.89L187.122 190.91L162.664 221.668L138.206 190.91L162.664 171.89ZM162.664 283.769L49.2997 159.007L74.2259 121.528L89.8574 127.689L77.0613 159.007L89.8574 182.508L116.707 192.566L162.689 254.667L208.67 192.566L235.52 182.508L248.316 159.007L235.52 127.689L251.151 121.528L276.077 159.007L162.713 283.769H162.664Z" fill="#0A477F"/>
</svg>
