<svg width="212" height="84" viewBox="0 0 212 84" fill="none" xmlns="http://www.w3.org/2000/svg">
<g clipPath="url(#clip0_114_658)">
<path d="M6.91345 75.7278H5.72465V81.4565C5.72465 81.8785 5.90583 82.1745 6.26501 82.3477C6.6242 82.521 7.23767 82.6627 8.10542 82.7729C8.36289 82.8107 8.49321 82.9934 8.49321 83.3209C8.49321 83.4689 8.47414 83.6327 8.43918 83.8154C7.90517 83.7776 7.23449 83.7461 6.43348 83.7209C5.63247 83.6925 4.76154 83.6799 3.82067 83.6799C3.15634 83.6799 2.51744 83.6925 1.89762 83.7209C1.28097 83.7492 0.702461 83.7807 0.168456 83.8154C0.130313 83.7429 0.11442 83.661 0.11442 83.5697V83.3492C0.11442 83.0375 0.216135 82.8642 0.419566 82.8296C0.807355 82.7572 1.11886 82.6879 1.36043 82.6249C1.59883 82.5619 1.78319 82.4895 1.91351 82.4044C2.04383 82.3225 2.12965 82.2218 2.17733 82.1021C2.22183 81.9824 2.24726 81.8312 2.24726 81.6486V67.9205C2.24726 67.5552 2.11376 67.2906 1.84676 67.1268C1.57976 66.9631 1.068 66.8339 0.311493 66.7426C0.219314 66.7048 0.146206 66.6513 0.0889913 66.5788C0.0349551 66.5064 0.00634766 66.3773 0.00634766 66.1946V65.949C0.00634766 65.8576 0.0254193 65.7852 0.0603839 65.7285C0.575317 65.7663 1.16972 65.7978 1.84358 65.823C2.51744 65.8513 3.12138 65.8639 3.65538 65.8639H7.83206C8.80789 65.8639 9.68519 65.9836 10.4608 66.2198C11.2363 66.456 11.8943 66.7962 12.4379 67.2339C12.9814 67.6717 13.3978 68.1945 13.6839 68.796C13.9699 69.3975 14.113 70.0652 14.113 70.7959C14.113 71.7659 13.8142 72.6445 13.2134 73.4413C12.6127 74.235 11.7894 74.8333 10.7373 75.2365L15.0793 81.5132C15.4098 81.9887 15.7945 82.3163 16.2267 82.4989C16.659 82.6816 17.0595 82.8202 17.4314 82.9115C17.5236 82.9304 17.5967 82.9713 17.6539 83.0343C17.708 83.0973 17.7366 83.2138 17.7366 83.3776V83.6232C17.7366 83.7146 17.7175 83.8059 17.6826 83.8972C17.4791 83.8783 17.193 83.8657 16.8243 83.8563C16.4556 83.8468 16.0742 83.8342 15.6769 83.8154C15.2795 83.7965 14.8822 83.7839 14.4881 83.7744C14.0907 83.765 13.7633 83.7618 13.5059 83.7618C13.1181 83.7618 12.7303 83.6012 12.3457 83.2831C11.9579 82.965 11.5796 82.5399 11.2109 82.0076L6.92298 75.7309L6.91345 75.7278ZM6.55427 74.3578C7.12641 74.3578 7.64135 74.3043 8.10225 74.194C8.56314 74.0838 8.96047 73.898 9.29104 73.6334C9.62162 73.3689 9.87591 73.0162 10.0507 72.5784C10.2256 72.1406 10.3146 71.5832 10.3146 70.9061C10.3146 69.7723 10.038 68.8779 9.48494 68.2197C8.93186 67.5615 7.95285 67.2339 6.55427 67.2339H5.72465V74.3578H6.55427Z" fill="#003B71"/>
<path d="M24.1193 81.6459C24.1193 81.8285 24.132 81.9797 24.1606 82.0994C24.1892 82.2191 24.2623 82.323 24.3831 82.4143C24.5039 82.5056 24.6787 82.5844 24.9076 82.6474C25.1365 82.7104 25.448 82.7702 25.8326 82.8269C26.0169 82.8647 26.1091 83.019 26.1091 83.293C26.1091 83.3465 26.1059 83.4316 26.0964 83.5386C26.0869 83.6489 26.0741 83.7402 26.0551 83.8126C25.4639 83.7748 24.8345 83.7434 24.1606 83.7182C23.4868 83.6898 22.8924 83.6772 22.3774 83.6772C21.8625 83.6772 21.2427 83.6898 20.5783 83.7182C19.914 83.7465 19.2878 83.778 18.6966 83.8126C18.6585 83.7402 18.6426 83.6489 18.6426 83.5386V83.293C18.6426 83.0001 18.7348 82.8458 18.9191 82.8269C19.3069 82.7733 19.6152 82.7135 19.8473 82.6474C20.0761 82.5844 20.2478 82.5056 20.359 82.4143C20.4703 82.323 20.5434 82.2191 20.5815 82.0994C20.6197 81.9797 20.6356 81.8285 20.6356 81.6459V67.9178C20.6356 67.7351 20.6165 67.5839 20.5815 67.4643C20.5434 67.3446 20.4703 67.2407 20.359 67.1493C20.2478 67.058 20.0761 66.9793 19.8473 66.9163C19.6152 66.8533 19.3069 66.7934 18.9191 66.7368C18.7348 66.6832 18.6426 66.5257 18.6426 66.2706V66.025C18.6426 65.9148 18.6616 65.814 18.6966 65.7227C19.2878 65.7604 19.914 65.7919 20.5783 65.8171C21.2427 65.8455 21.8403 65.8581 22.3774 65.8581C22.9146 65.8581 23.4868 65.8455 24.1606 65.8171C24.8345 65.7888 25.4639 65.7573 26.0551 65.7227C26.0741 65.814 26.0869 65.9148 26.0964 66.025C26.1059 66.1352 26.1091 66.2171 26.1091 66.2706C26.1091 66.5257 26.0169 66.6832 25.8326 66.7368C25.4448 66.7903 25.1365 66.8501 24.9076 66.9163C24.6756 66.9793 24.5007 67.058 24.3831 67.1493C24.2623 67.2407 24.1892 67.3446 24.1606 67.4643C24.132 67.5839 24.1193 67.7351 24.1193 67.9178V81.6459Z" fill="#003B71"/>
<path d="M42.7839 83.537C42.3421 83.6094 41.9257 83.6755 41.5379 83.7291C41.1501 83.7826 40.7496 83.833 40.3332 83.8802C39.9168 83.9243 39.4654 83.959 38.9759 83.9747C38.4864 83.9936 37.9175 84.0031 37.2722 84.0031C35.6098 84.0031 34.1731 83.7826 32.9652 83.3448C31.7542 82.9071 30.7624 82.2804 29.9869 81.4678C29.2113 80.6553 28.6328 79.6821 28.2545 78.5484C27.8763 77.4146 27.6855 76.1548 27.6855 74.766C27.6855 73.6889 27.8699 72.6023 28.2386 71.5064C28.6073 70.4104 29.1731 69.4183 29.9392 68.5334C30.7052 67.6484 31.662 66.9272 32.8158 66.3697C33.9665 65.8123 35.3174 65.5352 36.8685 65.5352C37.9365 65.5352 39.03 65.6139 40.1457 65.7682C41.2614 65.9225 42.3166 66.1304 43.3116 66.3855C43.3497 66.8799 43.4228 67.5098 43.5341 68.2751C43.6453 69.0436 43.8011 69.7931 44.0045 70.5238C43.9123 70.5427 43.8011 70.5647 43.6739 70.593C43.5436 70.6214 43.4419 70.634 43.3688 70.634C43.2194 70.634 43.0954 70.6119 42.9969 70.5647C42.8952 70.5206 42.8252 70.423 42.7903 70.2781C42.4025 69.0184 41.7668 68.1554 40.8831 67.6893C39.9994 67.2232 38.8997 66.9902 37.5932 66.9902C36.5983 66.9902 35.7179 67.1602 34.9518 67.4972C34.1858 67.8342 33.5501 68.3192 33.0447 68.9491C32.5361 69.5789 32.1515 70.3379 31.8845 71.2229C31.6175 72.1079 31.484 73.1094 31.484 74.2243C31.484 75.4494 31.6302 76.5706 31.9258 77.5941C32.2214 78.6176 32.6537 79.4995 33.2258 80.2396C33.798 80.9797 34.5036 81.556 35.3428 81.9654C36.182 82.378 37.1451 82.5827 38.2321 82.5827C38.6199 82.5827 38.9664 82.5638 39.2684 82.5292C39.5735 82.4914 39.8914 82.4284 40.222 82.337V78.3909C40.222 77.8964 40.0853 77.5563 39.8056 77.3642C39.5258 77.1721 39.0395 77.0304 38.3402 76.939C38.194 76.9012 38.0923 76.8256 38.0351 76.706C37.981 76.5863 37.9524 76.4729 37.9524 76.3627C37.9524 76.3092 37.9556 76.2241 37.9651 76.117C37.9747 76.0068 37.9874 75.9249 38.0065 75.8714C38.283 75.8903 38.5913 75.9092 38.9346 75.9249C39.2747 75.9438 39.6276 75.9564 39.9867 75.9659C40.3459 75.9753 40.6956 75.9848 41.0293 75.9942C41.3631 76.0037 41.6523 76.0068 41.8939 76.0068C42.1355 76.0068 42.4184 76.0037 42.7426 75.9942C43.0668 75.9848 43.4006 75.9753 43.7438 75.9659C44.0871 75.9564 44.4177 75.9438 44.7419 75.9249C45.063 75.906 45.3363 75.8871 45.5588 75.8714C45.597 75.9627 45.6129 76.0541 45.6129 76.1454V76.3658C45.6129 76.5296 45.5811 76.6524 45.5175 76.7343C45.4539 76.8162 45.3745 76.876 45.2823 76.9138C44.6911 76.9863 44.281 77.1059 44.0522 77.2697C43.8201 77.4335 43.7057 77.7075 43.7057 78.0917V82.8598C43.7057 83.0236 43.658 83.1622 43.5658 83.2724C43.4737 83.3826 43.2162 83.474 42.7903 83.5464L42.7839 83.537Z" fill="#003B71"/>
<path d="M63.1145 81.6459C63.1145 81.8285 63.1272 81.9797 63.1558 82.0994C63.1844 82.2191 63.2575 82.323 63.3783 82.4143C63.4991 82.5056 63.6739 82.5844 63.9028 82.6474C64.1317 82.7104 64.4432 82.7702 64.8278 82.8269C65.0121 82.8647 65.1043 83.019 65.1043 83.293C65.1043 83.3465 65.1011 83.4316 65.0916 83.5386C65.0821 83.6489 65.0693 83.7402 65.0503 83.8126C64.4591 83.7748 63.8329 83.7434 63.1685 83.7182C62.5042 83.693 61.913 83.6772 61.3981 83.6772C60.8831 83.6772 60.2601 83.6898 59.5863 83.7182C58.9124 83.7465 58.283 83.778 57.6918 83.8126C57.6537 83.7402 57.6378 83.6489 57.6378 83.5386V83.293C57.6378 83.0001 57.73 82.8458 57.9143 82.8269C58.3021 82.7733 58.6104 82.7135 58.8425 82.6474C59.0713 82.5844 59.243 82.5056 59.3542 82.4143C59.4655 82.323 59.5386 82.2191 59.5767 82.0994C59.6149 81.9797 59.6308 81.8285 59.6308 81.6459V75.2054H52.1642V81.6459C52.1642 81.8285 52.1769 81.9797 52.2056 82.0994C52.2342 82.2191 52.3073 82.323 52.4281 82.4143C52.5488 82.5056 52.7237 82.5844 52.9525 82.6474C53.1814 82.7104 53.4929 82.7702 53.8775 82.8269C54.0619 82.8647 54.154 83.019 54.154 83.293C54.154 83.3465 54.1509 83.4316 54.1413 83.5386C54.1318 83.6489 54.1191 83.7402 54.1 83.8126C53.5088 83.7748 52.8731 83.7434 52.1928 83.7182C51.5094 83.6898 50.9119 83.6772 50.3937 83.6772C49.8756 83.6772 49.2876 83.6898 48.6233 83.7182C47.9589 83.7465 47.3328 83.778 46.7415 83.8126C46.7034 83.7402 46.6875 83.6489 46.6875 83.5386V83.293C46.6875 83.0001 46.7797 82.8458 46.964 82.8269C47.3518 82.7733 47.6601 82.7135 47.8922 82.6474C48.121 82.5844 48.2927 82.5056 48.4039 82.4143C48.5152 82.323 48.5883 82.2191 48.6264 82.0994C48.6646 81.9797 48.6805 81.8285 48.6805 81.6459V67.9178C48.6805 67.7351 48.6614 67.5839 48.6264 67.4643C48.5883 67.3446 48.5152 67.2407 48.4039 67.1493C48.2927 67.058 48.121 66.9793 47.8922 66.9163C47.6601 66.8533 47.3518 66.7934 46.964 66.7368C46.7797 66.6832 46.6875 66.5257 46.6875 66.2706V66.025C46.6875 65.9148 46.7066 65.814 46.7415 65.7227C47.3328 65.7604 47.9589 65.7919 48.6233 65.8171C49.2876 65.8455 49.8756 65.8581 50.3937 65.8581C50.9119 65.8581 51.5094 65.8455 52.1928 65.8171C52.8762 65.7888 53.512 65.7573 54.1 65.7227C54.1191 65.814 54.1318 65.9148 54.1413 66.025C54.1509 66.1352 54.154 66.2171 54.154 66.2706C54.154 66.5257 54.0619 66.6832 53.8775 66.7368C53.4897 66.7903 53.1814 66.8501 52.9525 66.9163C52.7205 66.9793 52.5457 67.058 52.4281 67.1493C52.3073 67.2407 52.2342 67.3446 52.2056 67.4643C52.1769 67.5839 52.1642 67.7351 52.1642 67.9178V73.7536H59.6308V67.9178C59.6308 67.7351 59.6117 67.5839 59.5767 67.4643C59.5386 67.3446 59.4655 67.2407 59.3542 67.1493C59.243 67.058 59.0713 66.9793 58.8425 66.9163C58.6104 66.8533 58.3021 66.7934 57.9143 66.7368C57.73 66.6832 57.6378 66.5257 57.6378 66.2706V66.025C57.6378 65.9148 57.6569 65.814 57.6918 65.7227C58.283 65.7604 58.9124 65.7919 59.5863 65.8171C60.2601 65.8455 60.8641 65.8581 61.3981 65.8581C61.9321 65.8581 62.5042 65.8455 63.1685 65.8171C63.8329 65.7888 64.4591 65.7573 65.0503 65.7227C65.0693 65.814 65.0821 65.9148 65.0916 66.025C65.1011 66.1352 65.1043 66.2171 65.1043 66.2706C65.1043 66.5257 65.0121 66.6832 64.8278 66.7368C64.44 66.7903 64.1317 66.8501 63.9028 66.9163C63.6708 66.9793 63.4959 67.058 63.3783 67.1493C63.2575 67.2407 63.1844 67.3446 63.1558 67.4643C63.1272 67.5839 63.1145 67.7351 63.1145 67.9178V81.6459Z" fill="#003B71"/>
<path d="M76.6137 67.2291V81.6437C76.6137 81.8264 76.6264 81.9776 76.655 82.0972C76.6836 82.2169 76.7504 82.3208 76.8616 82.4122C76.9729 82.5035 77.1286 82.5822 77.332 82.6452C77.5355 82.7082 77.8215 82.768 78.1903 82.8247C78.4668 82.8783 78.6067 83.0357 78.6067 83.2908C78.6067 83.3444 78.6035 83.4294 78.5939 83.5365C78.5844 83.6467 78.5717 83.7381 78.5526 83.8105C77.9614 83.7727 77.332 83.7412 76.6582 83.716C75.9843 83.6877 75.3899 83.6751 74.875 83.6751C74.36 83.6751 73.7466 83.6877 73.0918 83.716C72.437 83.7444 71.814 83.7758 71.2259 83.8105C71.1878 83.7381 71.1656 83.6467 71.156 83.5365C71.1465 83.4263 71.1433 83.3444 71.1433 83.2908C71.1433 83.1617 71.1655 83.0578 71.2132 82.9759C71.2577 82.894 71.3849 82.8342 71.5851 82.7964C72.2685 82.7051 72.6945 82.5822 72.8725 82.4279C73.0473 82.2736 73.1363 82.0122 73.1363 81.6469V67.2322H70.7015C70.1865 67.2322 69.7479 67.2826 69.3887 67.3834C69.0295 67.4842 68.7148 67.6385 68.4478 67.8495C68.1808 68.0605 67.9393 68.3345 67.7295 68.6715C67.5165 69.0084 67.3004 69.4147 67.081 69.8903C67.0079 70.054 66.8681 70.1359 66.6647 70.1359C66.5534 70.1359 66.4263 70.1139 66.2769 70.0666C66.1306 70.0225 66.0194 69.9816 65.9463 69.9438C66.0766 69.506 66.1847 69.1187 66.2769 68.7785C66.369 68.4416 66.4422 68.1077 66.4994 67.777C66.5725 67.3582 66.6297 66.9834 66.6647 66.6527C66.7028 66.3252 66.7473 66.0858 66.8045 65.941C66.8776 65.7772 67.027 65.6953 67.2463 65.6953C67.4498 65.6953 67.8503 65.7237 68.451 65.7772C69.0486 65.8307 69.7733 65.8591 70.622 65.8591H79.1407C79.9703 65.8591 80.6855 65.8307 81.283 65.7772C81.8806 65.7237 82.2938 65.6953 82.5132 65.6953C82.7166 65.6953 82.8628 65.7772 82.955 65.941C83.009 66.089 83.0503 66.3252 83.0789 66.6527C83.1076 66.9803 83.1648 67.355 83.2601 67.777C83.3142 68.1046 83.3841 68.4384 83.4667 68.7785C83.5494 69.1155 83.6638 69.506 83.8132 69.9438C83.721 69.9816 83.6066 70.0225 83.4667 70.0666C83.3301 70.1139 83.2029 70.1359 83.0948 70.1359C82.8914 70.1359 82.7452 70.054 82.653 69.8903C82.4305 69.4147 82.2144 69.0084 82.0046 68.6715C81.7916 68.3345 81.5532 68.0605 81.2862 67.8495C81.0192 67.6385 80.7045 67.4842 80.3454 67.3834C79.9862 67.2826 79.5571 67.2322 79.058 67.2322H76.6232L76.6137 67.2291Z" fill="#003B71"/>
<path d="M97.7705 65.5867C97.8627 65.5678 97.9453 65.5552 98.0184 65.5458C98.0915 65.5364 98.1551 65.5332 98.2123 65.5332C98.3585 65.5332 98.4666 65.5647 98.5302 65.6277C98.5938 65.6907 98.6637 65.8166 98.7368 65.9962L103.273 77.8346L106.648 68.1598C106.741 67.9236 106.785 67.7315 106.785 67.5834C106.785 67.3283 106.664 67.1394 106.426 67.0229C106.187 66.9032 105.771 66.8087 105.18 66.7363C104.957 66.7174 104.849 66.5442 104.849 66.2166C104.849 66.1788 104.852 66.1379 104.862 66.0938C104.871 66.0497 104.875 65.9993 104.875 65.9426L104.903 65.7222C105.218 65.76 105.663 65.7914 106.245 65.8166C106.826 65.8418 107.364 65.8576 107.863 65.8576C108.397 65.8576 108.905 65.8481 109.385 65.8292C109.865 65.8103 110.288 65.7757 110.657 65.719L110.685 65.9395C110.685 65.993 110.688 66.0497 110.698 66.1032C110.707 66.1568 110.711 66.204 110.711 66.2387C110.711 66.5851 110.59 66.7678 110.351 66.7867C109.779 66.8402 109.36 66.9347 109.093 67.0606C108.826 67.1898 108.625 67.4354 108.498 67.8007L102.662 83.9696C102.57 83.9885 102.507 83.998 102.468 83.998H102.275C102.144 83.998 102.049 83.9696 101.985 83.9161C101.922 83.8625 101.842 83.7334 101.75 83.5319L97.2428 71.6398L92.8437 83.9728C92.7515 83.9917 92.6816 84.0011 92.6371 84.0011H92.4559C92.3065 84.0011 92.2016 83.9728 92.138 83.9192C92.0744 83.8657 92.0045 83.7366 91.9314 83.535L85.873 67.6685C85.7808 67.4134 85.6187 67.215 85.3898 67.0795C85.1578 66.941 84.6937 66.837 83.9944 66.7646C83.756 66.7457 83.6353 66.5536 83.6353 66.1883V65.9552C83.6353 65.8544 83.6543 65.7757 83.6893 65.7222C83.9658 65.7411 84.2805 65.76 84.6302 65.7757C84.9798 65.7946 85.3358 65.8072 85.695 65.8166C86.0542 65.8261 86.4038 65.8355 86.7471 65.845C87.0872 65.8544 87.386 65.8576 87.6466 65.8576C88.2538 65.8576 88.9181 65.845 89.6396 65.8166C90.358 65.7883 91.0033 65.7568 91.5754 65.7222C91.5945 65.8135 91.6072 65.9048 91.6167 65.9962C91.6263 66.0875 91.6294 66.1599 91.6294 66.2166C91.6294 66.5442 91.5087 66.7205 91.2703 66.7363C90.679 66.7898 90.2658 66.8843 90.0242 67.0103C89.7858 67.1394 89.6651 67.3126 89.6651 67.5299C89.6651 67.6023 89.6746 67.6716 89.6937 67.7346C89.7127 67.7976 89.7382 67.8763 89.7763 67.9677L93.3999 77.8598L97.7705 65.5836V65.5867Z" fill="#003B71"/>
<path d="M117.103 67.2295V73.8337H121.003C121.353 73.8337 121.594 73.692 121.722 73.4086C121.852 73.1251 121.96 72.6653 122.052 72.026C122.071 71.8811 122.125 71.7835 122.217 71.7394C122.31 71.6953 122.43 71.6701 122.577 71.6701C122.631 71.6701 122.72 71.6733 122.84 71.6827C122.961 71.6922 123.047 71.7048 123.104 71.7236C123.066 72.1457 123.034 72.6338 123.009 73.1912C122.98 73.7487 122.968 74.2179 122.968 74.6022C122.968 74.9297 122.977 75.3202 122.996 75.7674C123.015 76.2146 123.05 76.7217 123.107 77.2886C123.053 77.3264 122.964 77.3484 122.844 77.3579C122.723 77.3673 122.637 77.3705 122.58 77.3705C122.249 77.3705 122.071 77.2413 122.055 76.9862C121.944 76.2934 121.82 75.821 121.683 75.5753C121.544 75.3297 121.318 75.2068 121.006 75.2068H117.106V81.345C117.106 81.7292 117.345 81.9843 117.825 82.1134C118.305 82.2425 119.115 82.3055 120.259 82.3055H121.42C121.973 82.3055 122.437 82.2331 122.815 82.0851C123.193 81.9402 123.53 81.7323 123.826 81.4678C124.121 81.2032 124.379 80.8915 124.601 80.5356C124.824 80.1797 125.043 79.7829 125.266 79.342C125.32 79.216 125.45 79.1499 125.654 79.1499C125.746 79.1499 125.857 79.1782 125.984 79.2317C126.114 79.2853 126.242 79.342 126.372 79.3955C126.334 79.5404 126.292 79.679 126.248 79.8081C126.2 79.9372 126.159 80.0632 126.124 80.1923C126.032 80.3939 125.959 80.6143 125.901 80.8505C125.847 81.0867 125.79 81.2788 125.736 81.4269C125.698 81.6095 125.657 81.8142 125.612 82.0441C125.564 82.274 125.52 82.4913 125.472 82.7024C125.425 82.9134 125.38 83.0992 125.336 83.2629C125.288 83.4267 125.256 83.5369 125.24 83.5905C125.167 83.7353 125.018 83.8109 124.798 83.8109C124.649 83.8109 124.439 83.8015 124.163 83.7826C123.886 83.7637 123.587 83.7511 123.263 83.7416C122.939 83.7322 122.615 83.7196 122.281 83.7007C121.95 83.6818 121.664 83.6724 121.423 83.6724H115.145C114.611 83.6724 113.998 83.685 113.305 83.7133C112.612 83.7416 111.992 83.7731 111.439 83.8078C111.401 83.7353 111.385 83.6377 111.385 83.5212V83.2598C111.385 82.9858 111.477 82.8409 111.661 82.822C112.361 82.6929 112.866 82.5575 113.168 82.4095C113.473 82.2646 113.626 82.0063 113.626 81.641V67.9129C113.626 67.7302 113.597 67.5791 113.543 67.4594C113.489 67.3397 113.381 67.2389 113.225 67.1571C113.069 67.0752 112.866 67.0027 112.618 66.9366C112.37 66.8736 112.052 66.8043 111.664 66.7319C111.48 66.6784 111.388 66.5114 111.388 66.2374V65.976C111.388 65.8942 111.407 65.806 111.442 65.7146C112.233 65.7682 112.936 65.806 113.543 65.8249C114.15 65.8438 114.678 65.8532 115.12 65.8532H120.79C121.62 65.8532 122.335 65.8249 122.933 65.7713C123.53 65.7178 123.943 65.6895 124.163 65.6895C124.366 65.6895 124.512 65.7713 124.605 65.9351C124.659 66.0831 124.706 66.3508 124.744 66.7445C124.783 67.1382 124.846 67.5444 124.938 67.9633C124.992 68.2751 125.059 68.5743 125.132 68.8672C125.205 69.1601 125.317 69.5159 125.463 69.9348C125.371 69.9726 125.269 70.0072 125.158 70.045C125.046 70.0828 124.935 70.0986 124.827 70.0986C124.624 70.0986 124.477 70.0167 124.385 69.8529C124.163 69.3774 123.947 68.9711 123.737 68.6341C123.524 68.2971 123.285 68.0231 123.018 67.8121C122.751 67.6011 122.437 67.4531 122.078 67.3586C121.718 67.2673 121.289 67.2232 120.79 67.2232H117.113L117.103 67.2295Z" fill="#003B71"/>
<path d="M133.339 81.3428C133.339 81.727 133.587 81.9821 134.086 82.1112C134.585 82.2403 135.405 82.3033 136.547 82.3033H137.599C138.06 82.3033 138.46 82.2529 138.803 82.1522C139.144 82.0514 139.442 81.8813 139.703 81.6451C139.96 81.4089 140.196 81.1034 140.409 80.7286C140.622 80.3539 140.828 79.9035 141.032 79.3713C141.086 79.2264 141.226 79.1508 141.448 79.1508C141.54 79.1508 141.651 79.1792 141.779 79.2327C141.909 79.2862 142.036 79.3429 142.166 79.3965C142.017 79.9822 141.883 80.6153 141.766 81.3018C141.645 81.9884 141.54 82.6592 141.448 83.3174C141.429 83.5379 141.369 83.6733 141.267 83.73C141.165 83.7835 141.06 83.8119 140.949 83.8119C140.803 83.8119 140.593 83.8024 140.326 83.7835C140.059 83.7646 139.767 83.752 139.455 83.7426C139.14 83.7331 138.822 83.7205 138.501 83.7016C138.177 83.6828 137.898 83.6733 137.659 83.6733H131.381C130.847 83.6733 130.234 83.6859 129.541 83.7143C128.848 83.7426 128.228 83.7741 127.675 83.8087C127.637 83.7363 127.621 83.6387 127.621 83.5221V83.2607C127.621 82.9867 127.713 82.8419 127.898 82.823C128.597 82.6939 129.102 82.5584 129.404 82.4104C129.709 82.2655 129.862 82.0073 129.862 81.642V67.9139C129.862 67.7312 129.843 67.58 129.808 67.4604C129.77 67.3407 129.697 67.2367 129.585 67.1454C129.474 67.0541 129.303 66.9754 129.074 66.9124C128.842 66.8494 128.533 66.7895 128.146 66.7328C127.961 66.6793 127.869 66.5218 127.869 66.2667V66.0211C127.869 65.9109 127.888 65.8101 127.923 65.7188C128.514 65.7565 129.14 65.788 129.805 65.8132C130.469 65.8384 131.057 65.8542 131.575 65.8542C131.833 65.8542 132.128 65.851 132.459 65.8416C132.789 65.8321 133.136 65.8227 133.495 65.8132C133.854 65.8038 134.214 65.7912 134.573 65.7723C134.932 65.7534 135.259 65.7345 135.555 65.7188C135.574 65.8101 135.587 65.9109 135.596 66.0211C135.606 66.1313 135.609 66.2132 135.609 66.2667C135.609 66.5218 135.517 66.6793 135.332 66.7328C134.541 66.8431 134.01 66.9848 133.743 67.158C133.476 67.3312 133.343 67.6021 133.343 67.9674V81.3396L133.339 81.3428Z" fill="#003B71"/>
<path d="M148.552 81.3428C148.552 81.727 148.8 81.9821 149.299 82.1112C149.798 82.2403 150.618 82.3033 151.759 82.3033H152.811C153.272 82.3033 153.673 82.2529 154.016 82.1522C154.356 82.0514 154.655 81.8813 154.915 81.6451C155.173 81.4089 155.408 81.1034 155.621 80.7286C155.834 80.3539 156.041 79.9035 156.244 79.3713C156.298 79.2264 156.438 79.1508 156.66 79.1508C156.753 79.1508 156.864 79.1792 156.991 79.2327C157.121 79.2862 157.248 79.3429 157.379 79.3965C157.229 79.9822 157.096 80.6153 156.978 81.3018C156.857 81.9884 156.753 82.6592 156.66 83.3174C156.641 83.5379 156.581 83.6733 156.479 83.73C156.378 83.7835 156.273 83.8119 156.161 83.8119C156.015 83.8119 155.805 83.8024 155.538 83.7835C155.271 83.7646 154.979 83.752 154.667 83.7426C154.353 83.7331 154.035 83.7205 153.714 83.7016C153.39 83.6828 153.11 83.6733 152.872 83.6733H146.594C146.06 83.6733 145.446 83.6859 144.753 83.7143C144.06 83.7426 143.441 83.7741 142.888 83.8087C142.849 83.7363 142.833 83.6387 142.833 83.5221V83.2607C142.833 82.9867 142.926 82.8419 143.11 82.823C143.809 82.6939 144.315 82.5584 144.617 82.4104C144.922 82.2655 145.074 82.0073 145.074 81.642V67.9139C145.074 67.7312 145.055 67.58 145.02 67.4604C144.982 67.3407 144.909 67.2367 144.798 67.1454C144.687 67.0541 144.515 66.9754 144.286 66.9124C144.054 66.8494 143.746 66.7895 143.358 66.7328C143.174 66.6793 143.081 66.5218 143.081 66.2667V66.0211C143.081 65.9109 143.101 65.8101 143.135 65.7188C143.727 65.7565 144.353 65.788 145.017 65.8132C145.682 65.8384 146.27 65.8542 146.788 65.8542C147.045 65.8542 147.341 65.851 147.671 65.8416C148.002 65.8321 148.348 65.8227 148.708 65.8132C149.067 65.8038 149.426 65.7912 149.785 65.7723C150.144 65.7534 150.472 65.7345 150.767 65.7188C150.786 65.8101 150.799 65.9109 150.809 66.0211C150.818 66.1313 150.821 66.2132 150.821 66.2667C150.821 66.5218 150.729 66.6793 150.545 66.7328C149.753 66.8431 149.222 66.9848 148.955 67.158C148.688 67.3312 148.555 67.6021 148.555 67.9674V81.3396L148.552 81.3428Z" fill="#003B71"/>
<path d="M166.088 67.2291V81.6437C166.088 81.8264 166.101 81.9776 166.13 82.0972C166.158 82.2169 166.225 82.3208 166.336 82.4122C166.447 82.5035 166.603 82.5822 166.807 82.6452C167.01 82.7082 167.296 82.768 167.665 82.8247C167.941 82.8783 168.081 83.0357 168.081 83.2908C168.081 83.3444 168.078 83.4294 168.069 83.5365C168.059 83.6467 168.046 83.7381 168.027 83.8105C167.436 83.7727 166.807 83.7412 166.133 83.716C165.459 83.6877 164.865 83.6751 164.35 83.6751C163.835 83.6751 163.221 83.6877 162.566 83.716C161.912 83.7444 161.289 83.7758 160.701 83.8105C160.662 83.7381 160.64 83.6467 160.631 83.5365C160.621 83.4263 160.618 83.3444 160.618 83.2908C160.618 83.1617 160.64 83.0578 160.688 82.9759C160.732 82.894 160.859 82.8342 161.06 82.7964C161.743 82.7051 162.169 82.5822 162.347 82.4279C162.522 82.2736 162.611 82.0122 162.611 81.6469V67.2322H160.176C159.661 67.2322 159.223 67.2826 158.863 67.3834C158.504 67.4842 158.189 67.6385 157.922 67.8495C157.655 68.0605 157.414 68.3345 157.204 68.6715C156.991 69.0084 156.775 69.4147 156.556 69.8903C156.483 70.054 156.343 70.1359 156.139 70.1359C156.028 70.1359 155.901 70.1139 155.751 70.0666C155.605 70.0225 155.494 69.9816 155.421 69.9438C155.551 69.506 155.659 69.1187 155.751 68.7785C155.844 68.4416 155.917 68.1077 155.974 67.777C156.047 67.3582 156.104 66.9834 156.139 66.6527C156.177 66.3252 156.222 66.0858 156.279 65.941C156.352 65.7772 156.502 65.6953 156.721 65.6953C156.924 65.6953 157.325 65.7237 157.926 65.7772C158.523 65.8307 159.248 65.8591 160.097 65.8591H168.615C169.445 65.8591 170.16 65.8307 170.758 65.7772C171.355 65.7237 171.768 65.6953 171.988 65.6953C172.191 65.6953 172.337 65.7772 172.43 65.941C172.484 66.089 172.525 66.3252 172.554 66.6527C172.582 66.9803 172.639 67.355 172.735 67.777C172.789 68.1046 172.859 68.4384 172.941 68.7785C173.024 69.1155 173.138 69.506 173.288 69.9438C173.196 69.9816 173.081 70.0225 172.941 70.0666C172.805 70.1139 172.678 70.1359 172.569 70.1359C172.366 70.1359 172.22 70.054 172.128 69.8903C171.905 69.4147 171.689 69.0084 171.479 68.6715C171.266 68.3345 171.028 68.0605 170.761 67.8495C170.494 67.6385 170.179 67.4842 169.82 67.3834C169.461 67.2826 169.032 67.2322 168.533 67.2322H166.098L166.088 67.2291Z" fill="#003B71"/>
<path d="M173.914 74.7664C173.914 73.4878 174.159 72.291 174.648 71.1761C175.138 70.0612 175.805 69.0849 176.654 68.2441C177.503 67.4032 178.494 66.7418 179.626 66.2568C180.761 65.7718 181.972 65.5293 183.262 65.5293C184.553 65.5293 185.824 65.7592 186.969 66.2159C188.113 66.6725 189.101 67.3118 189.941 68.1338C190.78 68.9558 191.438 69.9321 191.918 71.0659C192.398 72.1997 192.636 73.4311 192.636 74.7664C192.636 76.1017 192.391 77.245 191.902 78.3693C191.412 79.4936 190.745 80.4699 189.896 81.3013C189.047 82.1328 188.052 82.791 186.908 83.2728C185.764 83.7579 184.547 84.0004 183.256 84.0004C181.965 84.0004 180.694 83.7705 179.55 83.3138C178.405 82.8571 177.42 82.2178 176.59 81.3958C175.761 80.5738 175.106 79.6007 174.626 78.4764C174.146 77.352 173.908 76.1143 173.908 74.7632L173.914 74.7664ZM183.679 82.5768C184.454 82.5768 185.154 82.4068 185.78 82.0698C186.406 81.7328 186.946 81.2699 187.398 80.6872C187.849 80.1014 188.199 79.418 188.45 78.6307C188.698 77.8465 188.822 77.0056 188.822 76.108C188.822 74.8105 188.698 73.6043 188.45 72.4894C188.202 71.3745 187.824 70.4108 187.315 69.5983C186.806 68.7857 186.171 68.1464 185.408 67.6803C184.642 67.2142 183.752 66.9812 182.738 66.9812C182.093 66.9812 181.466 67.1229 180.856 67.4063C180.249 67.6898 179.712 68.0992 179.251 68.6409C178.79 69.1794 178.421 69.8345 178.145 70.5998C177.868 71.3682 177.728 72.2343 177.728 73.2043C177.728 74.5554 177.862 75.8088 178.129 76.9584C178.396 78.1079 178.784 79.0999 179.289 79.9314C179.794 80.7628 180.417 81.4116 181.155 81.8777C181.892 82.3438 182.732 82.5768 183.672 82.5768H183.679Z" fill="#003B71"/>
<path d="M208.43 77.6997V67.9713C208.43 67.5682 208.294 67.2847 208.014 67.121C207.734 66.9572 207.248 66.8281 206.548 66.7368C206.31 66.6832 206.189 66.51 206.189 66.2171V65.9967C206.189 65.9053 206.208 65.814 206.243 65.7227C206.704 65.7762 207.156 65.814 207.597 65.8329C208.039 65.8518 208.557 65.8612 209.145 65.8612C209.733 65.8612 210.242 65.8518 210.668 65.8329C211.091 65.814 211.517 65.7793 211.939 65.7227C211.958 65.814 211.971 65.9053 211.981 65.9967C211.99 66.088 211.993 66.1604 211.993 66.2171C211.993 66.5289 211.882 66.7021 211.663 66.7368C211.056 66.8281 210.639 66.9572 210.417 67.121C210.194 67.2847 210.086 67.5493 210.086 67.9146V83.9449C210.013 83.9638 209.889 83.9764 209.714 83.9859C209.54 83.9953 209.425 83.9985 209.368 83.9985C209.238 83.9985 209.101 83.967 208.952 83.904C208.802 83.841 208.646 83.7087 208.481 83.5072L197.585 69.8042V81.6427C197.585 81.8254 197.598 81.9766 197.626 82.0962C197.655 82.2159 197.728 82.3167 197.849 82.3986C197.969 82.4805 198.144 82.5529 198.373 82.619C198.602 82.682 198.913 82.7513 199.298 82.8237C199.39 82.8426 199.47 82.8836 199.533 82.9466C199.597 83.0096 199.629 83.1418 199.629 83.3434C199.629 83.4725 199.61 83.6268 199.575 83.8095C199.114 83.7717 198.681 83.7402 198.275 83.715C197.868 83.6867 197.397 83.6741 196.863 83.6741C196.329 83.6741 195.818 83.6867 195.328 83.715C194.839 83.7434 194.394 83.7748 193.987 83.8095C193.949 83.7371 193.933 83.6552 193.933 83.5638V83.3434C193.933 83.1607 193.964 83.0316 194.028 82.9592C194.092 82.8867 194.171 82.8395 194.263 82.8237C194.928 82.7135 195.369 82.5781 195.592 82.4112C195.814 82.2474 195.922 81.9923 195.922 81.6427V67.776C195.922 67.4832 195.827 67.2596 195.633 67.1052C195.439 66.9509 195.001 66.8281 194.32 66.7368C194.098 66.6832 193.99 66.51 193.99 66.2171V66.0943C193.99 66.0502 193.999 65.9998 194.018 65.9431L194.047 65.7227C194.305 65.7416 194.552 65.7542 194.794 65.7636C195.032 65.773 195.274 65.7856 195.512 65.8045C195.919 65.8234 196.329 65.836 196.743 65.8455C197.159 65.8549 197.493 65.8581 197.753 65.8581C198.287 65.8581 198.637 65.8801 198.805 65.9274C198.971 65.9746 199.12 66.0596 199.247 66.1888L208.43 77.6997Z" fill="#003B71"/>
<path d="M96.496 20.6542L97.1508 23.6209L100.803 24.9216L102.408 28.2505V22.969L100.949 19.9298L92.8438 15.5176L92.4782 13.8516L85.0308 25.9357L86.3435 29.7685L93.4286 19.6401L96.496 20.6542Z" fill="#E1251B"/>
<path d="M119.522 13.8516L119.156 15.5176L111.051 19.9298L109.589 22.969V28.2505L111.197 24.9216L114.846 23.6209L115.504 20.6542L118.572 19.6401L125.654 29.7685L126.969 25.9357L119.522 13.8516Z" fill="#E1251B"/>
<path d="M116.887 25.9323L113.946 28.4581H111.696L113.915 33.8656L113.104 35.6796L111.216 36.1268L107.316 33.8687V32.8893L109.865 30.8674L109.986 29.173L109.004 30.3477L105.997 30.565L102.99 30.3477L102.008 29.173L102.128 30.8674L104.678 32.8893V33.8687L100.777 36.1268L98.8894 35.6796L98.0788 33.8656L100.297 28.4581H98.047L95.1068 25.9323L92.9835 25.1387L87.2144 34.6151L105.994 55.5238L124.773 34.6151L119.004 25.1387L116.88 25.9323H116.887ZM106 35.9914L109.153 38.4511L106 42.4287L102.847 38.4511L106 35.9914ZM106 50.4596L91.3847 34.3254L94.5982 29.4785L96.6135 30.2753L94.9638 34.3254L96.6135 37.3645L100.075 38.6652L106.003 46.6961L111.931 38.6652L115.393 37.3645L117.042 34.3254L115.393 30.2753L117.408 29.4785L120.621 34.3254L106.006 50.4596H106Z" fill="#E1251B"/>
<path d="M91.9507 3.12103H120.05V0C120.05 0 120.04 0 120.037 0H91.9634C91.9634 0 91.9539 0 91.9507 0V3.12103Z" fill="#E1251B"/>
<path d="M128.806 5.00781C128.806 5.00781 128.797 5.00781 128.791 5.00781H83.2094C83.2094 5.00781 83.1999 5.00781 83.1935 5.00781C79.8178 5.00781 77.0747 7.72257 77.0747 11.0766C77.0747 14.4307 79.8147 17.1392 83.1935 17.1392C86.5724 17.1392 89.2233 14.5158 89.3123 11.253H86.1623C86.067 12.7962 84.7765 14.0182 83.1935 14.0182C81.6106 14.0182 80.2247 12.7017 80.2247 11.0766C80.2247 9.45157 81.5534 8.12884 83.1935 8.12884H104.42H128.803C130.44 8.12884 131.772 9.45157 131.772 11.0766C131.772 12.7017 130.443 14.0182 128.803 14.0182C127.163 14.0182 125.93 12.7931 125.834 11.253H122.684C122.773 14.5189 125.475 17.1392 128.803 17.1392C132.131 17.1392 134.922 14.4244 134.922 11.0766C134.922 7.72887 132.182 5.00781 128.803 5.00781H128.806Z" fill="#E1251B"/>
<path d="M115.968 10.1914V15.2335L112.818 16.6382V13.3124H107.576V18.1814L106 18.8868L104.42 18.1814V13.3124H99.1754V16.6382L96.0254 15.2335V10.1914H115.968Z" fill="#E1251B"/>
</g>
<defs>
<clipPath id="clip0_114_658">
<rect width="212" height="84" fill="white"/>
</clipPath>
</defs>
</svg>
