<svg width="449" height="435" viewBox="0 0 449 435" fill="none" xmlns="http://www.w3.org/2000/svg">
<path d="M150.945 161.728L156.024 184.958L184.352 195.143L196.803 221.21V179.854L185.486 156.056L122.616 121.506L119.781 108.46L62.0137 203.084L72.1962 233.097L127.152 153.787L150.945 161.728Z" fill="#5B748D"/>
<path d="M329.546 108.46L326.711 121.506L263.84 156.056L252.499 179.854V221.21L264.975 195.143L293.279 184.958L298.382 161.728L322.174 153.787L377.106 233.097L387.313 203.084L329.546 108.46Z" fill="#5B748D"/>
<path d="M309.107 203.058L286.301 222.836H268.845L286.055 265.179L279.768 279.384L265.122 282.886L234.871 265.204V257.535L254.644 241.702L255.581 228.435L247.962 237.633L224.639 239.335L201.315 237.633L193.697 228.435L194.633 241.702L214.407 257.535V265.204L184.155 282.886L169.51 279.384L163.223 265.179L180.432 222.836H162.976L140.17 203.058L123.701 196.844L78.9517 271.049L224.614 434.773L370.277 271.049L325.528 196.844L309.058 203.058H309.107ZM224.663 281.826L249.121 301.086L224.663 332.233L200.206 301.086L224.663 281.826ZM224.663 395.118L111.299 268.78L136.225 230.827L151.857 237.066L139.061 268.78L151.857 292.578L178.706 302.763L224.688 365.649L270.67 302.763L297.519 292.578L310.315 268.78L297.519 237.066L313.151 230.827L338.077 268.78L224.713 395.118H224.663Z" fill="#5B748D"/>
<path d="M115.688 24.4391H333.639V0C333.639 0 333.565 0 333.54 0H115.786C115.786 0 115.712 0 115.688 0V24.4391Z" fill="#5B748D"/>
<path d="M401.564 39.209C401.564 39.209 401.49 39.209 401.441 39.209H47.8861C47.8861 39.209 47.8122 39.209 47.7629 39.209C21.5792 39.209 0.301758 60.4668 0.301758 86.7308C0.301758 112.995 21.5545 134.203 47.7629 134.203C73.9713 134.203 94.5337 113.661 95.224 88.1118H70.7908C70.0511 100.196 60.0411 109.764 47.7629 109.764C35.4846 109.764 24.735 99.4559 24.735 86.7308C24.735 74.0057 35.0409 63.6481 47.7629 63.6481H212.41H401.539C414.237 63.6481 424.567 74.0057 424.567 86.7308C424.567 99.4559 414.261 109.764 401.539 109.764C388.817 109.764 379.251 100.171 378.511 88.1118H354.078C354.768 113.685 375.725 134.203 401.539 134.203C427.353 134.203 449 112.945 449 86.7308C449 60.5161 427.748 39.209 401.539 39.209H401.564Z" fill="#5B748D"/>
<path d="M301.982 79.8037V119.286L277.549 130.285V104.243H236.893V142.369L224.664 147.893L212.41 142.369V104.243H171.729V130.285L147.296 119.286V79.8037H301.982Z" fill="#5B748D"/>
</svg>
