<?xml version="1.0" encoding="UTF-8"?>
<svg id="Layer_1" data-name="Layer 1" xmlns="http://www.w3.org/2000/svg" version="1.1" viewBox="0 0 2000 2000">
  <defs>
    <style>
      .cls-1 {
        fill: #1b477b;
        strokeWidth: 0px;
      }
    </style>
  </defs>
  <g>
    <polygon class="cls-1" points="797.32 846.97 811.31 910.69 889.01 938.66 923.21 1010.15 923.21 896.7 892.12 831.43 719.62 736.63 711.85 700.89 553.33 960.42 581.3 1042.79 732.05 825.21 797.32 846.97"/>
    <polygon class="cls-1" points="1287.4 700.89 1279.63 736.63 1107.12 831.43 1076.04 896.7 1076.04 1010.15 1110.23 938.66 1187.94 910.69 1201.92 846.97 1267.2 825.21 1417.94 1042.79 1445.92 960.42 1287.4 700.89"/>
    <path class="cls-1" d="M1231.33,960.4l-62.55,54.25h-47.87l47.23,116.16-17.23,38.93-40.21,9.57-82.98-48.51v-21.06l54.25-43.4,2.55-36.38-20.92,25.25-63.99,4.66-63.99-4.66-20.92-25.25,2.55,36.38,54.25,43.4v21.06l-82.98,48.51-40.21-9.57-17.23-38.93,47.23-116.16h-47.87l-62.55-54.25-45.19-17.07-122.77,203.59,399.67,449.13,399.67-449.13-122.77-203.59-45.19,17.07ZM999.62,1176.44l67.1,52.84-67.1,85.48-67.09-85.48,67.09-52.84ZM999.62,1487.26l-311.09-346.56,68.38-104.12,42.87,17.1-35.1,87.03,35.1,65.27,73.69,27.97,126.15,172.51,126.15-172.51,73.69-27.97,35.1-65.27-35.1-87.03,42.87-17.1,68.38,104.12-311.09,346.56Z"/>
  </g>
  <g>
    <path class="cls-1" d="M700.61,470.4h598.02v-.02h.02v-67.05c-.1,0-.19.02-.28.02h-597.49c-.1,0-.19-.02-.28-.02v67.05h.02v.02Z"/>
    <path class="cls-1" d="M1485.04,510.91c-.11,0-.22.02-.33.02h-970.16c-.11,0-.22-.02-.33-.02-71.88,0-130.21,58.33-130.21,130.34s58.33,130.21,130.21,130.21,128.33-56.32,130.21-126.46h-67.05c-2.01,33.12-29.5,59.41-63.16,59.41s-63.16-28.3-63.16-63.16,28.29-63.29,63.16-63.29h.02v.02h970.79v-.02h.02c34.87,0,63.16,28.43,63.16,63.29s-28.29,63.16-63.16,63.16-61.15-26.28-63.16-59.41h-67.05c1.88,70.13,59.41,126.46,130.21,126.46s130.21-58.33,130.21-130.21-58.33-130.34-130.21-130.34Z"/>
    <polygon class="cls-1" points="1211.79 622.24 1211.79 730.59 1144.74 760.76 1144.74 689.29 1033.17 689.29 1033.17 793.89 999.64 809.04 965.99 793.89 965.99 689.29 854.41 689.29 854.41 760.76 787.36 730.59 787.36 622.24 1211.79 622.24"/>
  </g>
</svg>