<svg width="80" height="80" viewBox="0 0 80 80" fill="none" xmlns="http://www.w3.org/2000/svg">
<path d="M39.9998 73.3337C58.4093 73.3337 73.3332 58.4098 73.3332 40.0003C73.3332 21.5908 58.4093 6.66699 39.9998 6.66699C21.5903 6.66699 6.6665 21.5908 6.6665 40.0003C6.6665 58.4098 21.5903 73.3337 39.9998 73.3337Z" stroke="white" strokeWidth="2" strokeLinecap="round" stroke-linejoin="round"/>
<path d="M31.6665 29.8848C31.6665 28.2938 31.6665 27.4983 31.999 27.0543C32.2887 26.6672 32.7322 26.4251 33.2144 26.3907C33.7678 26.3511 34.4369 26.7813 35.7752 27.6416L51.5105 37.7572C52.6718 38.5037 53.2524 38.877 53.453 39.3516C53.6282 39.7663 53.6282 40.2343 53.453 40.649C53.2524 41.1237 52.6718 41.4969 51.5105 42.2435L35.7752 52.359C34.4369 53.2193 33.7678 53.6495 33.2144 53.61C32.7322 53.5755 32.2887 53.3334 31.999 52.9464C31.6665 52.5023 31.6665 51.7068 31.6665 50.1159V29.8848Z" stroke="white" strokeWidth="2" strokeLinecap="round" stroke-linejoin="round"/>
</svg>
