<svg width="22" height="20" viewBox="0 0 22 20" fill="none" xmlns="http://www.w3.org/2000/svg">
<path d="M9.50043 9.99881H4.00043M3.91577 10.2903L1.58085 17.265C1.39742 17.813 1.3057 18.0869 1.37152 18.2556C1.42868 18.4022 1.55144 18.5132 1.70292 18.5555C1.87736 18.6042 2.14083 18.4856 2.66776 18.2485L19.3792 10.7284C19.8936 10.4969 20.1507 10.3812 20.2302 10.2204C20.2993 10.0808 20.2993 9.91688 20.2302 9.77721C20.1507 9.61645 19.8936 9.50073 19.3792 9.26928L2.66193 1.74654C2.13659 1.51013 1.87392 1.39193 1.69966 1.44042C1.54832 1.48253 1.42556 1.59332 1.36821 1.73956C1.30216 1.90795 1.3929 2.18133 1.57437 2.72809L3.91642 9.78434C3.94759 9.87825 3.96317 9.9252 3.96933 9.97322C3.97479 10.0158 3.97473 10.059 3.96916 10.1016C3.96289 10.1496 3.94718 10.1965 3.91577 10.2903Z" stroke="white" strokeWidth="2" strokeLinecap="round" stroke-linejoin="round"/>
</svg>
