<svg width="62" height="33" viewBox="0 0 62 33" fill="none" xmlns="http://www.w3.org/2000/svg">
<path d="M34.3565 0.89509V6.68655C32.178 6.44188 29.9057 6.27431 27.9048 6.16371V0.332031C31.2831 0.583397 34.3565 0.898441 34.3565 0.898441V0.89509Z" fill="white"/>
<path d="M34.3565 25.418V31.2094C34.3565 31.2094 31.2831 31.5211 27.9048 31.7758V25.9442C29.9057 25.8336 32.178 25.666 34.3565 25.4213V25.418Z" fill="white"/>
<path d="M6.77346 16.0505C6.77346 22.6396 9.83341 26.1688 21.8855 26.1688C21.8855 26.1688 23.9434 26.1386 26.7922 25.9979V31.8497C24.8014 31.9904 22.8106 32.0977 21.366 32.0977C14.8238 32.0977 0 31.5782 0 16.0472C0 0.516137 14.8205 0 21.3627 0C22.8072 0 24.798 0.107249 26.7888 0.248014V6.0998C23.9434 5.95903 21.8822 5.92887 21.8822 5.92887C9.83005 5.92887 6.77011 9.45804 6.77011 16.0472L6.77346 16.0505Z" fill="white"/>
<path d="M18.3663 23.5618C22.5126 23.5618 25.8738 20.2006 25.8738 16.0543C25.8738 11.9081 22.5126 8.54688 18.3663 8.54688C14.2201 8.54688 10.8589 11.9081 10.8589 16.0543C10.8589 20.2006 14.2201 23.5618 18.3663 23.5618Z" fill="white"/>
<path d="M53.0113 10.6808C55.1862 10.6808 56.9494 8.91767 56.9494 6.74274C56.9494 4.56782 55.1862 2.80469 53.0113 2.80469C50.8364 2.80469 49.0732 4.56782 49.0732 6.74274C49.0732 8.91767 50.8364 10.6808 53.0113 10.6808Z" fill="white"/>
<path d="M43.3287 10.6808C45.5036 10.6808 47.2667 8.91767 47.2667 6.74274C47.2667 4.56782 45.5036 2.80469 43.3287 2.80469C41.1538 2.80469 39.3906 4.56782 39.3906 6.74274C39.3906 8.91767 41.1538 10.6808 43.3287 10.6808Z" fill="white"/>
<path d="M53.0113 29.3058C55.1862 29.3058 56.9494 27.5427 56.9494 25.3677C56.9494 23.1928 55.1862 21.4297 53.0113 21.4297C50.8364 21.4297 49.0732 23.1928 49.0732 25.3677C49.0732 27.5427 50.8364 29.3058 53.0113 29.3058Z" fill="white"/>
<path d="M43.3287 29.3058C45.5036 29.3058 47.2667 27.5427 47.2667 25.3677C47.2667 23.1928 45.5036 21.4297 43.3287 21.4297C41.1538 21.4297 39.3906 23.1928 39.3906 25.3677C39.3906 27.5427 41.1538 29.3058 43.3287 29.3058Z" fill="white"/>
<path d="M48.3795 19.9894C50.5544 19.9894 52.3175 18.2263 52.3175 16.0513C52.3175 13.8764 50.5544 12.1133 48.3795 12.1133C46.2045 12.1133 44.4414 13.8764 44.4414 16.0513C44.4414 18.2263 46.2045 19.9894 48.3795 19.9894Z" fill="white"/>
<path d="M58.062 19.9894C60.2369 19.9894 62 18.2263 62 16.0513C62 13.8764 60.2369 12.1133 58.062 12.1133C55.887 12.1133 54.1239 13.8764 54.1239 16.0513C54.1239 18.2263 55.887 19.9894 58.062 19.9894Z" fill="white"/>
</svg>
