<svg width="35" height="30" viewBox="0 0 35 30" fill="none" xmlns="http://www.w3.org/2000/svg">
<path d="M10.762 14.8064C13.4759 15.9677 15.1604 18.4839 15.1604 22.0645C15.1604 26.8064 11.885 30 7.6738 30C3.18182 30 0 26.7097 0 22.0645C0 19.8387 0.374332 18.1936 2.05882 13.7419L7.01872 0H14.5053L10.762 14.8064ZM30.6016 14.8064C33.3155 15.9677 35 18.4839 35 22.0645C35 26.8064 31.7246 30 27.5134 30C23.0214 30 19.8396 26.7097 19.8396 22.0645C19.8396 19.8387 20.2139 18.1936 21.8984 13.7419L26.8583 0H34.3449L30.6016 14.8064Z" fill="white"/>
</svg>
