<svg width="15" height="13" viewBox="0 0 15 13" fill="none" xmlns="http://www.w3.org/2000/svg">
<path d="M4.6123 6.41613C5.7754 6.91935 6.49733 8.00968 6.49733 9.56129C6.49733 11.6161 5.09358 13 3.28877 13C1.36364 13 0 11.5742 0 9.56129C0 8.59678 0.160428 7.88387 0.882353 5.95484L3.00802 0H6.21658L4.6123 6.41613ZM13.115 6.41613C14.2781 6.91935 15 8.00968 15 9.56129C15 11.6161 13.5963 13 11.7914 13C9.86631 13 8.50267 11.5742 8.50267 9.56129C8.50267 8.59678 8.6631 7.88387 9.38503 5.95484L11.5107 0H14.7193L13.115 6.41613Z" fill="#F32735"/>
</svg>
